# xmcd
#
# Track frame offsets: 
#        150
#        23133
#        41516
#        58892
#        75021
#        94323
#        112982
#        131293
#
# Disc length: 2007 seconds
#
# Revision: 0
# Processed by: cddbd v1.5.2PL0 Copyright (c) Steve Scherf et al.
# Submitted via: ExactAudioCopyFreeDBPlugin 1.0
#
DISCID=5707d508
DTITLE=Shaan and Sagarika - Tomar Aakash
DYEAR=2004
DGENRE=Bengali Modern
TTITLE0=Sagarika - Tomar Aakash
TTITLE1=Shaan - Kopal Taake
TTITLE2=Shaan, Sagarika and Jolly Mukherjee - Taxi
TTITLE3=Sagarika - Bujhi Shob
TTITLE4=Shaan - Ghar Chara Pakhira
TTITLE5=Sagarika - Hàde Hàde Sini Tomay
TTITLE6=Shaan - Doore Thekei Jeno
TTITLE7=Aaka Baaka Pathe
EXTD=
EXTT0=
EXTT1=
EXTT2=
EXTT3=
EXTT4=
EXTT5=
EXTT6=
EXTT7=
PLAYORDER=
